<?xml version="1.0" encoding="UTF-8"?>
<svg id="Layer_2" data-name="Layer 2" xmlns="http://www.w3.org/2000/svg" viewBox="0 0 1080 1080">
  <defs>
    <style>
      .cls-1 {
        fill: #fff;
        opacity: 0;
      }
    </style>
  </defs>
  <g id="Layer_1-2" data-name="Layer 1">
    <g>
      <rect class="cls-1" width="1080" height="1080"/>
      <g>
        <g id="NzKEiB">
          <g>
            <path d="M694.39,991c-14.42,0-30.23-1.63-44.19-3.07-8.11-.84-15.77-1.63-22.49-2.04-135.66-8.38-268.53-16.9-402.51-28.97-6.07-.55-12.47-.75-18.65-.94-6.89-.22-14.02-.44-20.62-1.15-26.3-2.84-31.48-18.56-31.15-41.28.22-15.33,2.11-31.89,3.95-47.91,1.28-11.19,2.6-22.75,3.33-33.72,1.63-24.61,3.01-49.68,4.35-73.92,5.02-90.8,10.21-184.68,29.21-275.13,7.19-34.21,16.28-68.63,25.08-101.92,5.07-19.18,10.31-39.01,15.13-58.58,1.54-6.27,3.17-12.62,4.8-19,7.44-29.04,15.13-59.07,16.69-88.27-.31-8.06-.91-16.31-1.49-24.29-.97-13.26-1.98-26.97-1.69-39.92.48-22.24,3.1-46.3,28.39-50.33,21.02-3.34,44.64-3.4,67.48-3.46,13.99-.03,28.45-.07,41.82-.89l79.61-5.27c1.62-.02,3.34-.03,5.05-.03,4.05,0,8.11.05,12.16.1,4.07.05,8.14.1,12.21.1,2.62,0,5.23-.02,7.85-.08,45.76-.96,92.53-1.09,137.76-1.21,32.98-.09,67.09-.19,100.5-.6l4.63-.08c3.51-.07,7.65-.15,12.05-.15,19.79,0,32.01,1.76,37.34,5.39,4.58,3.11,8.02,8.84,9.45,15.71,4,19.34,3.58,42.14,3.16,64.19-.25,12.97-.48,25.21.14,36.75,1.16,21.81,10.04,51.78,17.88,78.21,3.58,12.08,6.96,23.49,9.45,33.49,38.16,153.3,63.03,309.84,78.27,492.64.45,5.36,1.3,12.01,2.21,19.05,2.52,19.6,5.65,43.99,2.14,57.12-2.69,10.06-8.27,13.03-17.15,17.04-11.78,5.32-24.56,10.05-36.91,14.62-10.19,3.78-20.73,7.68-30.69,11.9-19.99,8.47-40.15,17.68-59.64,26.57-10.14,4.63-20.28,9.26-30.42,13.8-3.19,1.43-6.47,3.22-9.65,4.94-4.1,2.23-8.33,4.54-12.34,6.05-8.05,3.04-18.67,4.52-32.48,4.52h0ZM609.78,117.73c-14.66,0-29.32.05-43.97.22-42.97.49-86.52,2.36-128.64,4.17-13.47.58-26.94,1.16-40.43,1.69-10.51.42-21.1.73-31.7,1.04-17.49.51-35.58,1.04-53.16,2.09-2.13.13-4.28.16-6.45.2-6.66.11-13.55.22-20.04,3l-.9.39-.11.98c-2.03,18.48-1.4,37.27-.78,55.44.48,14.23.98,28.95.19,43.41-8.48,40.96-19.15,82.79-29.47,123.25-11.34,44.48-23.07,90.48-31.99,135.83-16.56,84.2-23.2,172.63-29.63,258.15-2.21,29.35-4.49,59.71-7.13,89.21,1.35,16.25,0,32.66-1.32,48.53-.82,9.96-1.68,20.26-1.83,30.26-.2,12.8,6.32,13.52,16.2,14.6,9.2,1,18.59,1.18,27.67,1.35,7.1.13,14.44.27,21.4.79,33.94,2.51,68.43,5.4,101.79,8.2,43.61,3.66,88.71,7.44,133.15,10.41,16.31,1.09,32.82,2.29,49.42,3.49,44.58,3.23,90.67,6.57,134.79,7.96l3.4.12c3.82.14,8.34.3,12.55.3,3.93,0,6.95-.14,9.23-.44,1.91-.24,3.99-.51,5.35-2.96l.22-.39s-.2-12.44-.3-18.45c-.34-19.05-.69-38.75-.27-58.05,2.03-93.55,10.55-193.96,26.04-306.96,7.82-56.97,19.11-113.26,30.03-167.7,4.02-20.01,8.04-40.08,11.94-60.33,1.83-9.51,3.98-19.76,6.2-30.35,5.97-28.46,12.74-60.72,14.69-86.6.61-8.26-.17-17.96-.92-27.33-.49-6.1-.96-11.87-1.05-17.15-.03-1.76,0-5.61.03-10.62.33-46.99-.57-55.58-2.72-57.08l-.4-.28-.48-.02c-8.66-.4-17.97-.59-28.47-.59-4.56,0-9.11.04-13.64.1-16.77.23-33.54.3-50.33.3-13.03,0-26.05-.04-39.08-.08-13.03-.04-26.07-.08-39.09-.08ZM808.18,852.57c-.71,0-1.35.17-1.9.51l-.26.16-72.62,95,2.01,2.56,161.39-71.32v-1.09c.05-15.4-1.88-30.9-3.74-45.89-.89-7.18-1.79-14.36-2.47-21.54-1.71-17.92-3.31-35.87-4.92-53.82-6.42-71.79-13.05-146.03-26.65-218-7.57-40.12-15.77-78.9-25.7-125.43-7.19-33.66-15.97-69.79-27.65-113.71l-.4-1.51-1.53.29c-2.8.53-3.09,2.79-3.24,4.01-.04.28-.07.56-.14.83-2.51,9.67-4.65,20.28-6.71,30.54-.77,3.82-1.53,7.59-2.29,11.25-21.75,103.68-45.43,226.92-56.23,354.84l-1.7,23.8c-4.65,64.91-9.46,132.03-9.69,198.3v1.34s1.3.3,1.3.3c.62.14,1.11.21,1.52.21,1.33,0,2.17-.68,2.49-2.03,12.21-18.04,25.69-35.03,38.74-51.46,6.69-8.44,13.4-16.88,19.98-25.49,7.39-9.65,7.18-14.23,6.73-24.27l-.16-3.68c-.35-9.6-1.24-19.41-2.1-28.89-.83-9.2-1.7-18.72-2.06-27.99-.94-23.82-1.19-48.22-1.42-71.82-.15-15.42-.31-30.82-.65-46.12-.21-9.26-.44-18.51-.67-27.75-.82-32.61-1.66-66.33-1.32-99.48.05-4.86-.11-10.1-.27-15.41-.28-9.24-.58-18.79.24-26.89.77-7.61,5.09-12.32,8.65-12.32,2.46,0,4.61,2.26,5.9,6.2.89,2.72,1.28,9.62,1.54,14.19l.2,3.25c4.31,62.3,5.45,126.16,6.54,187.91.49,27.6,1,56.14,1.78,84.13.11,4,.04,8.02-.03,12.04-.06,3.61-.12,7.21-.05,10.81l3.16,53.54.8.45c8.57,4.79,18,8.63,27.13,12.35,8.91,3.63,18.13,7.39,26.39,11.98,4.88,2.71,12.22,6.79,11.86,12.44-.23,3.53-2.41,5.92-6.13,6.71-.46.1-1.02.15-1.66.15-8.81,0-29.12-9.24-43.95-15.98-6.34-2.88-11.81-5.37-15.33-6.67-.27-.1-.58-.24-.91-.39-1.1-.49-2.46-1.11-3.79-1.11Z"/>
            <path d="M350.58,209.66c54.6-1.77,109.72.28,164.19.77,65.21.59,130.64-.83,195.67,3.02,8.2.49,24.3,1.16,31.51,3.67,8.92,3.11,12.11,11.06,2.46,15.9-12.96,6.51-54.21,2.47-70.19,2.16-115.15-2.2-230.3-4.41-345.72-3.02-17.62.88-23.4-19.34-3.99-21.65,7.47-.89,18.07-.59,26.06-.85Z"/>
          </g>
        </g>
        <path d="M556.68,532.42c30.37-1.36,45.95-36.4,77.01-35,21.04.95,41.73,27.94,44.72,47.37,11.31,73.4-86.96,104.45-143.4,82.48,4.64,28.15,40.54,25.38,60.5,38.36,27.86,18.11,22.79,65.03-2.29,83.52-37.54,27.68-101.2-6.31-125.5-39.71l-16.67-44.23c-18.89,40.4,19.84,110.57-50.44,110.76-73.64.2-73.46-82.31-52.2-133.48l24.04-31.46c-43.99.53-67.27,64.08-111.15,25.79-40.42-35.28-.47-108.26,42.83-122.6,26.27-8.7,58.16-8.09,84.58-.78-16.27-31.54-69.67-18.86-77.94-58.83-3.46-16.69.97-31.18,11.78-43.89,47.06-55.29,146.18,5.22,151.49,67.51,18.27-14.27,5.79-31.07,4.06-47.38-3.59-33.83,2.3-55.48,39.21-58.36,71.63-5.6,85.26,70.36,61.58,123.88l-22.18,36.04Z"/>
      </g>
    </g>
  </g>
</svg>