<svg width="181" height="62" viewBox="0 0 181 62" fill="none" xmlns="http://www.w3.org/2000/svg">
<path d="M14.08 22.16L24.32 31.44C29.68 36.24 30.88 39.12 30.88 44.48V45.92C30.88 56 27.04 61.6 15.44 61.6C3.83999 61.6 -9.62615e-06 56.88 -9.62615e-06 44V42.4C-9.62615e-06 40.08 0.63999 39.44 2.95999 39.44H8.39999C10.72 39.44 11.36 40.08 11.36 42.4V45.92C11.36 49.12 12.64 50.4 15.44 50.4C18.24 50.4 19.52 49.2 19.52 46.32V44.8C19.52 42.56 19.04 41.44 16.08 38.8L6.47999 30.24C1.11999 25.52 -9.62615e-06 22.8 -9.62615e-06 17.44V15.68C-9.62615e-06 5.60001 3.83999 1.43051e-05 15.44 1.43051e-05C27.04 1.43051e-05 30.88 4.72002 30.88 17.6V19.2C30.88 21.52 30.24 22.16 27.92 22.16H22.48C20.16 22.16 19.52 21.52 19.52 19.2V15.68C19.52 12.48 18.24 11.2 15.44 11.2C12.64 11.2 11.36 12.4 11.36 15.28V16.64C11.36 18.96 11.84 20.08 14.08 22.16ZM59.2644 12H54.3044C53.1844 12 52.8644 12.32 52.8644 13.44V57.84C52.8644 60.16 52.2244 60.8 49.9044 60.8H44.7844C42.4644 60.8 41.8244 60.16 41.8244 57.84V13.44C41.8244 12.32 41.5044 12 40.3844 12H35.4244C33.1044 12 32.4644 11.36 32.4644 9.04002V3.76001C32.4644 1.44001 33.1044 0.800014 35.4244 0.800014H59.2644C61.5844 0.800014 62.2244 1.44001 62.2244 3.76001V9.04002C62.2244 11.36 61.5844 12 59.2644 12ZM71.9794 0.800014H82.0594C85.6594 0.800014 86.7794 2.00002 87.1794 4.96002L94.2194 57.84C94.5394 60.16 93.8994 60.8 91.5794 60.8H86.0594C83.6594 60.8 83.0994 60.24 82.7794 57.84L81.7394 49.12C81.6594 48.32 81.4194 48.08 80.4594 48.08H73.5794C72.6194 48.08 72.3794 48.32 72.2994 49.12L71.2594 57.84C70.9394 60.24 70.3794 60.8 67.9794 60.8H62.4594C60.1394 60.8 59.4994 60.16 59.8194 57.84L66.8594 4.96002C67.2594 2.00002 68.3794 0.800014 71.9794 0.800014ZM78.4594 17.12C78.3794 16.16 77.8994 16 77.0194 16C76.1394 16 75.6594 16.16 75.5794 17.12L73.7394 35.76C73.6594 36.72 73.8994 36.96 74.9394 36.96H79.0994C80.1394 36.96 80.3794 36.72 80.2994 35.76L78.4594 17.12ZM110.017 22.16L120.257 31.44C125.617 36.24 126.817 39.12 126.817 44.48V45.92C126.817 56 122.977 61.6 111.377 61.6C99.7775 61.6 95.9375 56.88 95.9375 44V42.4C95.9375 40.08 96.5775 39.44 98.8975 39.44H104.337C106.657 39.44 107.297 40.08 107.297 42.4V45.92C107.297 49.12 108.577 50.4 111.377 50.4C114.177 50.4 115.457 49.2 115.457 46.32V44.8C115.457 42.56 114.977 41.44 112.017 38.8L102.417 30.24C97.0575 25.52 95.9375 22.8 95.9375 17.44V15.68C95.9375 5.60001 99.7775 1.43051e-05 111.377 1.43051e-05C122.977 1.43051e-05 126.817 4.72002 126.817 17.6V19.2C126.817 21.52 126.177 22.16 123.857 22.16H118.417C116.097 22.16 115.457 21.52 115.457 19.2V15.68C115.457 12.48 114.177 11.2 111.377 11.2C108.577 11.2 107.297 12.4 107.297 15.28V16.64C107.297 18.96 107.777 20.08 110.017 22.16ZM152.472 57.84V36.24C152.472 35.12 152.152 34.8 151.032 34.8H144.472C143.352 34.8 143.032 35.12 143.032 36.24V57.84C143.032 60.16 142.392 60.8 140.072 60.8H134.952C132.632 60.8 131.992 60.16 131.992 57.84V3.76001C131.992 1.44001 132.632 0.800014 134.952 0.800014H140.072C142.392 0.800014 143.032 1.44001 143.032 3.76001V22.16C143.032 23.2 143.352 23.6 144.472 23.6H151.032C152.152 23.6 152.472 23.2 152.472 22.16V3.76001C152.472 1.44001 153.112 0.800014 155.432 0.800014H160.552C162.872 0.800014 163.512 1.44001 163.512 3.76001V57.84C163.512 60.16 162.872 60.8 160.552 60.8H155.432C153.112 60.8 152.472 60.16 152.472 57.84Z" fill="black"/>
<path d="M180.43 53.84V55.92C180.43 59.2 178.83 60.8 175.55 60.8H173.47C170.27 60.8 168.59 59.2 168.59 55.92V53.84C168.59 50.64 170.27 48.96 173.47 48.96H175.55C178.83 48.96 180.43 50.64 180.43 53.84Z" fill="#FF8248"/>
</svg>
